<?xml version="1.0" encoding="UTF-8"?><svg id="Layer_1" xmlns="http://www.w3.org/2000/svg" viewBox="0 0 841.89 595.28"><defs><style>.cls-1{fill:#432918;}</style></defs><path class="cls-1" d="M389.5,389.51c-.87-.13-1.74-.27-2.62-.42,.87,.14,1.74,.29,2.62,.42Z"/><path class="cls-1" d="M412.9,391.34c-1.14,0-2.27-.02-3.41-.05,1.14,.03,2.27,.04,3.41,.05Z"/><path class="cls-1" d="M418.5,391.29c-1.5,.04-3,.06-4.5,.06,1.5,0,3-.02,4.5-.06Z"/><path class="cls-1" d="M407.84,391.23c-.95-.04-1.9-.07-2.85-.12,.95,.05,1.9,.09,2.85,.12Z"/><path class="cls-1" d="M398.57,390.62c-.87-.08-1.75-.17-2.62-.27,.87,.1,1.75,.18,2.62,.27Z"/><path class="cls-1" d="M403.16,390.99c-.89-.06-1.79-.12-2.68-.19,.89,.07,1.79,.14,2.68,.19Z"/><path class="cls-1" d="M423,391.1c-1.13,.06-2.27,.11-3.4,.15,1.13-.04,2.27-.08,3.4-.15Z"/><path class="cls-1" d="M441.07,389.1c-.87,.14-1.73,.28-2.6,.41,.87-.13,1.73-.27,2.6-.41Z"/><path class="cls-1" d="M445.63,388.27c-.88,.17-1.75,.34-2.63,.49,.88-.16,1.75-.32,2.63-.49Z"/><path class="cls-1" d="M448.29,387.75v-.02c-.25,.05-.51,.11-.77,.17,.26-.05,.51-.1,.77-.15Z"/><path class="cls-1" d="M432.02,390.35c-.9,.1-1.79,.19-2.69,.27,.9-.08,1.79-.17,2.69-.27Z"/><path class="cls-1" d="M436.54,389.79c-.87,.12-1.75,.23-2.62,.34,.87-.11,1.75-.22,2.62-.34Z"/><path class="cls-1" d="M427.51,390.79c-.95,.08-1.9,.14-2.86,.2,.95-.06,1.9-.13,2.86-.2Z"/><path class="cls-1" d="M394.03,390.13c-.87-.11-1.74-.22-2.6-.34,.87,.12,1.74,.23,2.6,.34Z"/><path class="cls-1" d="M379.95,387.81c.18,.04,.35,.07,.53,.1-.18-.04-.36-.08-.53-.12h0Z"/><path class="cls-1" d="M449.02,384.2c-.48-.34-.96-.67-1.46-.98,.5,.31,.98,.66,1.45,1v-.03Z"/><path class="cls-1" d="M380.64,383.18c.68-.41,1.37-.81,2.06-1.19-.69,.39-1.38,.78-2.06,1.19Z"/><path class="cls-1" d="M379.27,384.01h0c.3-.18,.6-.37,.91-.55-.3,.18-.61,.37-.91,.55Z"/><path class="cls-1" d="M384.98,388.78c-.9-.16-1.8-.33-2.7-.51,.9,.18,1.8,.35,2.7,.51Z"/><path class="cls-1" d="M383.2,381.71c.73-.4,1.46-.78,2.2-1.13-.75,.35-1.48,.73-2.2,1.13Z"/><path class="cls-1" d="M508.66,312.08c-.42,.56-.66,.77-.78,1.05-3.16,7.16-6.53,14.23-9.41,21.5-5.05,12.77-10.1,25.49-19.06,36.19-.15,.18-.33,.32-.54,.42l-4.5,2.19c-.59,.28-1.28,.17-1.76-.27-9.11-8.43-19.75-14.19-31.8-17.24-5.26-1.33-10.5-2.66-16.07-.52-12.47,4.77-9.09,4.54-21.56,.13-2.09-.74-4.44-1.39-6.59-1.18-14.75,1.4-27.59,7.38-38.94,16.7-.33,.27-.75,.4-1.17,.35l-7.43-.81c-.47-.05-.9-.32-1.16-.72-3.55-5.53-7.56-10.81-10.53-16.62-3.62-7.1-6.23-14.71-9.36-22.06-2.65-6.22-5.43-12.39-8.16-18.59-.57,.77-.58,1.4-.57,2.03,.21,21.44,.5,42.89,.62,64.33,.06,11.23,1.6,29.29,7.02,39.2,.57,1.04,.32-4.37,.89-3.06,4.89,11.14,10.81,15.21,16.25,23.7,4.93,7.7,10.98,14.7,16.66,21.91l.04,.04c1.09,1.36,3.26,.08,2.69-1.56l9.33,7.97c.86,.95,2.03,1.88,3.23,2.23,9.9,2.94,19.81,5.85,29.78,8.54,2.96,.8,6.21,1.58,9.17,1.19,11.88-1.55,23.37-4.8,34.68-8.73,3.17-1.1,5.68-2.82,7.52-5.58l7.68-6.75c1.66,1.03,1.37,.86,3.03,1.89,1.26-1.27,2.49-2.56,3.63-3.93,10.79-12.97,20.84-24.75,28.61-41.23,.39-.82,1.41,2.5,1.78,1.75,4.43-8.94,5.8-21.75,5.9-32.01,.16-16.04,.62-32.07,.86-48.11,.12-7.97,.02-15.94,.02-24.32Zm-57.1,74.95c-1.09,.25-2.18,.48-3.27,.71v.02c-.26,.05-.52,.1-.77,.15-.63,.13-1.26,.25-1.89,.37-.88,.17-1.75,.34-2.63,.49-.64,.11-1.29,.22-1.93,.33-.87,.14-1.73,.28-2.6,.41-.64,.1-1.29,.19-1.93,.28-.87,.12-1.75,.23-2.62,.34-.63,.08-1.27,.16-1.9,.23-.9,.1-1.79,.19-2.69,.27-.61,.06-1.22,.12-1.82,.17-.95,.08-1.9,.14-2.86,.2-.55,.04-1.1,.08-1.65,.11-1.13,.06-2.27,.11-3.4,.15-.37,.01-.73,.03-1.1,.04-1.5,.04-3,.06-4.5,.06-.36,0-.73-.01-1.09-.01-1.14,0-2.27-.02-3.41-.05-.55-.02-1.1-.04-1.65-.06-.95-.04-1.9-.07-2.85-.12-.61-.03-1.22-.08-1.83-.12-.89-.06-1.79-.12-2.68-.19-.63-.05-1.27-.11-1.9-.17-.87-.08-1.75-.17-2.62-.27-.64-.07-1.28-.15-1.92-.23-.87-.11-1.74-.22-2.6-.34-.64-.09-1.29-.18-1.93-.28-.87-.13-1.74-.27-2.62-.42-.63-.11-1.27-.21-1.9-.32-.9-.16-1.8-.33-2.7-.51-.6-.12-1.2-.23-1.8-.35-.18-.04-.35-.07-.53-.1h0c-1.24-.27-2.47-.53-3.71-.82-.11-.31-.22-.63-.34-.94,1.13-.66,2.25-1.35,3.37-2.04h0c.3-.19,.61-.37,.91-.55,.15-.09,.31-.19,.46-.28,.68-.41,1.37-.81,2.06-1.19,.17-.09,.33-.18,.5-.27,.73-.4,1.46-.78,2.2-1.13,8.45-3.93,17.45-6.31,26.64-7.29,4.43-.47,9.13,.88,13.62,1.84,7.67,1.63,15.14,3.95,21.9,8.08,.5,.31,.98,.64,1.46,.98v.03c.93,.68,1.86,1.38,2.79,2.06l-.25,.75Z"/><path class="cls-1" d="M513.28,175.07c-.51,4.01-.75,8.07-1.6,12.01-1.06,4.93-3.9,6.82-8.77,5.68-5.93-1.38-11.79-3.15-17.6-5-23.03-7.35-46.63-10.19-70.74-9.29-6.57,.24-13.15-.1-19.72,.09-20.21,.58-39.77,4.66-58.88,11.1-3.76,1.27-7.62,2.33-11.51,3.12-5.02,1.02-7.8-.78-8.92-5.79-4-18,.85-33.18,14.71-45.44,11.7-10.35,25.45-16.82,40.35-20.83,14.44-3.89,25.32-1.75,41.62-.07,20.34-1.57,37.92-2.76,55.89,3.87,12.08,4.45,23.11,10.79,32.13,20.18,8.13,8.46,13.15,18.28,13.05,30.39Z"/><path class="cls-1" d="M500.69,198.01c-1.76,0-3.56,.21-5.29-.04-5.57-.8-11.12-1.74-16.66-2.68-27.99-4.76-56.13-7.06-84.52-5.37-17.98,1.07-35.77,3.61-53.49,6.69-3.81,.66-7.66,1.11-11.5,1.57-.87,.1-1.78-.18-2.67-.29l-.29-.76c1.04-.79,1.97-1.85,3.13-2.31,4.48-1.75,8.96-3.59,13.58-4.87,14.06-3.88,28.46-5.9,42.97-7.14,16.79-1.43,33.6-1.62,50.4-.38,19.42,1.43,38.69,3.88,57.18,10.44,1.85,.66,3.62,1.56,5.35,2.49,.78,.42,1.37,1.18,2.05,1.78l-.24,.87Z"/><g><path class="cls-1" d="M63.55,316.5c-10.73-5.92-18.44-13.91-23.11-23.99-.59-1.02-.88-2.19-.88-3.5,0-2.04,.77-3.76,2.3-5.15,1.53-1.39,3.61-2.08,6.24-2.08,1.75,0,3.4,.48,4.93,1.42,1.53,.95,2.66,2.3,3.4,4.05,3.36,6.57,8.94,11.87,16.76,15.88,7.81,4.02,16.9,6.02,27.27,6.02,11.97,0,21.61-2.88,28.92-8.65,7.3-5.77,10.95-13.84,10.95-24.21,0-9.2-3.4-16.94-10.19-23.22-6.79-6.28-16.98-10.3-30.56-12.05-16.94-2.04-30.27-7.34-39.98-15.88-9.71-8.54-14.57-19.02-14.57-31.44,0-8.76,2.37-16.46,7.12-23.11,4.75-6.64,11.32-11.75,19.72-15.34,8.4-3.58,17.93-5.37,28.59-5.37,11.54,0,21.69,2.56,30.45,7.67,8.76,5.11,15.63,11.76,20.59,19.94,1.02,1.61,1.53,3.36,1.53,5.26,0,2.78-1.31,4.97-3.94,6.57-1.17,.58-2.49,.88-3.94,.88-1.61,0-3.11-.4-4.49-1.21-1.39-.8-2.52-1.93-3.4-3.4-8.18-12.85-20.52-19.35-37.02-19.5-11.83,0-21.18,2.49-28.04,7.45-6.87,4.97-10.3,12.05-10.3,21.25,0,17.09,13.8,27.46,41.4,31.11,18.11,2.63,31.62,8.18,40.53,16.65,8.91,8.47,13.36,19.64,13.36,33.52,0,10.22-2.48,19.06-7.45,26.51-4.97,7.45-11.76,13.11-20.37,16.98-8.62,3.87-18.26,5.81-28.92,5.81-13.88,0-26.18-2.96-36.91-8.87Z"/><path class="cls-1" d="M283.16,316.17c0,2.19-1.02,4.16-3.07,5.92-1.75,1.31-3.5,1.97-5.26,1.97-2.34,0-4.31-1.02-5.92-3.07l-45.13-55.42-16.43,14.9v34.39c0,2.49-.77,4.49-2.3,6.02s-3.54,2.3-6.02,2.3-4.49-.77-6.02-2.3c-1.53-1.53-2.3-3.54-2.3-6.02V160.41c0-2.48,.77-4.49,2.3-6.02,1.53-1.53,3.54-2.3,6.02-2.3s4.49,.77,6.02,2.3c1.53,1.53,2.3,3.54,2.3,6.02v99.67l61.78-55.86c1.61-1.46,3.36-2.19,5.26-2.19,2.19,0,4.01,.88,5.48,2.63,1.61,1.9,2.41,3.65,2.41,5.26,0,2.05-.95,3.87-2.85,5.48l-43.81,39.65,45.57,56.08c1.31,1.46,1.97,3.14,1.97,5.04Z"/><path class="cls-1" d="M494.56,209.81c8.32,5.04,14.75,12.01,19.28,20.92,4.53,8.91,6.79,19.06,6.79,30.45,0,2.34-.73,4.2-2.19,5.59-1.46,1.39-3.36,2.08-5.7,2.08h-88.28v1.53c1.46,11.54,6.28,20.89,14.46,28.04,8.18,7.16,18.18,10.73,30.01,10.73,5.7,0,11.06-.88,16.1-2.63s9.24-4.09,12.6-7.01c1.9-1.46,3.87-2.19,5.92-2.19s3.65,.59,4.82,1.75c2.04,1.75,3.07,3.72,3.07,5.91,0,1.75-.88,3.43-2.63,5.04-4.82,4.09-10.95,7.49-18.4,10.19-7.45,2.7-14.61,4.05-21.47,4.05-9.06,0-17.38-1.72-24.97-5.15-7.6-3.43-14.1-8.29-19.5-14.57v10.3c0,2.34-.81,4.31-2.41,5.92s-3.65,2.41-6.13,2.41-4.53-.77-6.13-2.3c-1.61-1.53-2.41-3.54-2.41-6.02v-13.14c-5.11,7.01-11.61,12.53-19.5,16.54-7.89,4.02-16.58,6.02-26.07,6.02-11.1,0-21.14-2.66-30.12-8-8.98-5.33-16.07-12.63-21.25-21.91-5.18-9.27-7.78-19.61-7.78-31s2.66-21.76,8-31.11c5.33-9.34,12.63-16.68,21.91-22.02,9.27-5.33,19.61-8,31-8s22.02,2.78,31.44,8.32c9.42,5.55,16.68,13.07,21.8,22.56,4.53-9.64,11.06-17.2,19.61-22.67,8.54-5.48,18.29-8.21,29.25-8.21s20.59,2.52,28.92,7.56Zm-108.44,93.21c6.71-3.94,12.01-9.38,15.88-16.32,3.87-6.93,5.81-14.71,5.81-23.33s-1.94-16.39-5.81-23.33c-3.87-6.93-9.17-12.41-15.88-16.43-6.72-4.01-14.24-6.02-22.56-6.02s-15.88,2.01-22.67,6.02c-6.79,4.02-12.12,9.5-15.99,16.43-3.87,6.94-5.81,14.72-5.81,23.33s1.93,16.4,5.81,23.33c3.87,6.94,9.2,12.38,15.99,16.32,6.79,3.94,14.35,5.91,22.67,5.91s15.84-1.97,22.56-5.91Zm51.92-75.36c-7.3,6.87-11.76,15.92-13.36,27.16h80.4c-1.17-11.24-5.3-20.3-12.38-27.16-7.09-6.86-16.1-10.3-27.05-10.3s-20.3,3.43-27.6,10.3Z"/><path class="cls-1" d="M630.6,210.03c9.2,5.19,16.43,12.42,21.69,21.69,5.26,9.28,7.89,19.83,7.89,31.65v44.69c0,11.69-2.59,22.27-7.78,31.76-5.19,9.49-12.38,16.98-21.58,22.45-9.2,5.48-19.57,8.22-31.11,8.22s-21.25-2.12-30.01-6.35c-8.76-4.24-16.14-10.15-22.13-17.75-1.31-1.46-1.97-3.14-1.97-5.04,0-2.19,1.02-4.09,3.07-5.7,1.46-1.02,3.07-1.53,4.82-1.53,1.31,0,2.63,.33,3.94,.99,1.31,.66,2.33,1.5,3.07,2.52,4.38,5.55,9.93,9.86,16.65,12.92,6.71,3.07,14.31,4.6,22.78,4.6s15.59-2.01,22.24-6.02c6.64-4.02,11.86-9.64,15.66-16.87,3.8-7.23,5.7-15.52,5.7-24.86v-9.86c-4.38,8.32-10.59,14.86-18.62,19.61-8.03,4.75-17.16,7.12-27.38,7.12-11.39,0-21.58-2.59-30.56-7.78-8.98-5.18-15.99-12.41-21.03-21.69-5.04-9.27-7.56-19.75-7.56-31.44s2.63-22.38,7.89-31.65c5.26-9.27,12.52-16.5,21.8-21.69,9.27-5.18,19.68-7.78,31.22-7.78s22.13,2.59,31.33,7.78Zm-8.54,93.1c6.72-3.87,11.97-9.27,15.77-16.21,3.8-6.93,5.7-14.79,5.7-23.55s-1.9-16.61-5.7-23.55c-3.8-6.93-9.06-12.38-15.77-16.32-6.72-3.94-14.31-5.92-22.78-5.92s-16.29,1.97-23,5.92c-6.72,3.94-11.98,9.39-15.77,16.32-3.8,6.94-5.7,14.79-5.7,23.55s1.9,16.61,5.7,23.55c3.8,6.94,9.05,12.34,15.77,16.21,6.72,3.87,14.38,5.81,23,5.81s16.06-1.93,22.78-5.81Z"/></g><g><path class="cls-1" d="M121.19,405.87c-.54-.54-.81-1.18-.81-1.93v-49.4c0-.75,.27-1.39,.81-1.93s1.18-.81,1.93-.81c.8,0,1.45,.26,1.97,.77,.51,.51,.77,1.17,.77,1.97v23.89l25.65-25.65c.66-.66,1.38-.98,2.18-.98s1.42,.24,1.86,.7c.45,.47,.67,1.05,.67,1.76,0,.84-.31,1.59-.91,2.25l-19.25,19.25,19.46,26.56c.37,.61,.56,1.17,.56,1.69,0,.7-.25,1.32-.74,1.86-.49,.54-1.09,.81-1.79,.81-1.03,0-1.8-.4-2.32-1.19l-19.11-25.86-6.25,6.32v17.99c0,.75-.26,1.39-.77,1.93-.52,.54-1.17,.81-1.97,.81-.75,0-1.39-.27-1.93-.81Z"/><path class="cls-1" d="M188.93,370.46c2.97,1.71,5.32,4.06,7.03,7.06,1.71,3,2.56,6.32,2.56,9.98v16.51c0,.75-.26,1.38-.77,1.9s-1.17,.77-1.97,.77-1.45-.25-1.97-.74c-.52-.49-.77-1.14-.77-1.93v-4.22c-1.64,2.25-3.72,4.02-6.25,5.3-2.53,1.29-5.32,1.93-8.36,1.93-3.56,0-6.78-.85-9.66-2.57-2.88-1.71-5.15-4.05-6.82-7.03-1.66-2.97-2.49-6.29-2.49-9.94s.85-6.98,2.57-9.98c1.71-3,4.05-5.35,7.03-7.06,2.97-1.71,6.29-2.57,9.94-2.57s6.97,.86,9.94,2.57Zm-2.71,29.76c2.15-1.26,3.85-3.01,5.1-5.23,1.24-2.23,1.86-4.72,1.86-7.48s-.62-5.26-1.86-7.48c-1.24-2.22-2.94-3.98-5.1-5.27-2.15-1.29-4.57-1.93-7.24-1.93s-5.1,.65-7.27,1.93-3.89,3.05-5.13,5.27c-1.24,2.23-1.86,4.72-1.86,7.48s.62,5.26,1.86,7.48c1.24,2.22,2.95,3.97,5.13,5.23,2.18,1.27,4.6,1.9,7.27,1.9s5.08-.63,7.24-1.9Z"/><path class="cls-1" d="M219,359.81c-1.57,2.06-2.35,4.8-2.35,8.22v1.62h8.43c.75,0,1.35,.22,1.79,.67s.67,1.02,.67,1.72c0,.66-.22,1.21-.67,1.65s-1.04,.67-1.79,.67h-8.43v29.59c0,.84-.25,1.51-.74,2-.49,.49-1.18,.74-2.07,.74-.75,0-1.37-.25-1.86-.74-.49-.49-.74-1.16-.74-2v-29.59h-4.5c-.75,0-1.35-.22-1.79-.67s-.67-1-.67-1.65c0-.7,.22-1.28,.67-1.72s1.04-.67,1.79-.67h4.5v-1.33c0-5.01,1.29-9.02,3.87-12.02,2.58-3,6.21-4.5,10.89-4.5,.8,0,1.45,.24,1.97,.7,.52,.47,.77,1.05,.77,1.76s-.26,1.29-.77,1.76c-.51,.47-1.17,.7-1.97,.7-3.09,0-5.42,1.03-6.99,3.09Zm25.72,0c-1.57,2.06-2.35,4.8-2.35,8.22v1.62h8.43c.75,0,1.35,.22,1.79,.67s.67,1.02,.67,1.72c0,.66-.22,1.21-.67,1.65s-1.04,.67-1.79,.67h-8.43v29.59c0,.84-.25,1.51-.74,2-.49,.49-1.18,.74-2.07,.74-.75,0-1.37-.25-1.86-.74-.49-.49-.74-1.16-.74-2v-29.59h-4.5c-.75,0-1.35-.22-1.79-.67s-.67-1-.67-1.65c0-.7,.22-1.28,.67-1.72s1.04-.67,1.79-.67h4.5v-1.33c0-5.01,1.29-9.02,3.86-12.02,2.58-3,6.21-4.5,10.89-4.5,.8,0,1.45,.24,1.97,.7,.51,.47,.77,1.05,.77,1.76s-.26,1.29-.77,1.76-1.17,.7-1.97,.7c-3.09,0-5.42,1.03-6.99,3.09Z"/><path class="cls-1" d="M285.52,370.32c2.67,1.62,4.74,3.85,6.22,6.71,1.48,2.86,2.21,6.11,2.21,9.77,0,.75-.23,1.35-.7,1.79s-1.08,.67-1.83,.67h-28.39c.37,3.84,1.87,6.96,4.5,9.35,2.62,2.39,5.9,3.58,9.84,3.58,1.69,0,3.38-.29,5.1-.88,1.71-.59,3.08-1.32,4.11-2.21,.61-.47,1.24-.7,1.9-.7,.51,0,1.03,.19,1.55,.56,.61,.56,.91,1.19,.91,1.9,0,.61-.26,1.15-.77,1.62-1.55,1.31-3.51,2.4-5.9,3.27-2.39,.87-4.69,1.3-6.89,1.3-3.75,0-7.1-.83-10.05-2.49s-5.26-3.98-6.92-6.96c-1.66-2.97-2.49-6.33-2.49-10.08s.78-7.18,2.35-10.15,3.75-5.29,6.54-6.96c2.79-1.66,5.96-2.49,9.52-2.49s6.54,.81,9.21,2.43Zm-18.06,5.73c-2.34,2.2-3.77,5.11-4.29,8.71h25.72c-.38-3.61-1.69-6.51-3.94-8.71-2.25-2.2-5.13-3.3-8.64-3.3s-6.51,1.1-8.85,3.3Z"/></g><path class="cls-1" d="M729.16,319.42c-8.32-3.07-15.04-7.37-20.15-12.93-1.46-1.75-2.19-3.43-2.19-5.04,0-2.48,1.17-4.67,3.5-6.57,1.75-1.31,3.58-1.97,5.48-1.97,2.48,0,4.6,1.02,6.35,3.07,3.5,4.09,8.14,7.23,13.91,9.42,5.77,2.19,12.16,3.29,19.17,3.29,10.22,0,17.89-1.75,23-5.26,5.11-3.51,7.74-8.11,7.89-13.8,0-5.26-2.56-9.64-7.67-13.14-5.11-3.5-13.22-6.13-24.32-7.89-14.31-2.33-25.01-6.39-32.09-12.16-7.09-5.77-10.62-12.74-10.62-20.92,0-10.66,4.12-18.91,12.38-24.75,8.25-5.84,18.58-8.76,31-8.76,9.64,0,18.04,1.64,25.19,4.93,7.15,3.29,12.92,7.85,17.31,13.69,1.17,1.9,1.75,3.58,1.75,5.04,0,2.49-1.17,4.46-3.5,5.92-1.02,.73-2.41,1.09-4.16,1.09-3.07,0-5.62-1.09-7.67-3.29-7.16-8.18-16.94-12.27-29.35-12.27-8.03,0-14.46,1.64-19.28,4.93-4.82,3.29-7.23,7.41-7.23,12.38,0,5.26,2.26,9.46,6.79,12.6,4.53,3.14,12.56,5.66,24.1,7.56,15.63,2.63,26.8,6.9,33.52,12.82,6.71,5.91,10.08,13.25,10.08,22.02,0,6.72-2.01,12.71-6.02,17.96-4.02,5.26-9.6,9.35-16.76,12.27-7.16,2.92-15.26,4.38-24.32,4.38s-17.74-1.53-26.07-4.6Z"/><ellipse class="cls-1" cx="412.85" cy="119.11" rx="10.54" ry="2.43"/><path class="cls-1" d="M687.75,174.91c.04,1.62-.31,8.2-7.56,15.87-7.61,7.8-8.7,10.78-8.7,10.78,0,0-.83-1.41,6.57-10.78,8.74-11.07,8.67-15.04,7.95-17.67-.72-.55-1.51-.97-2.38-1.21-5.98-1.67-13.08,5.06-15.85,15.02-2.77,9.96-.18,19.39,5.8,21.05s13.08-5.06,15.85-15.02c2.01-7.22,1.19-14.13-1.68-18.04Z"/></svg>